# AST/ASF file generated using VICON BodyLanguage
# -----------------------------------------------
:version 1.10
:name VICON
:units
  mass 1.0
  length 0.45
  angle deg
:documentation
   .ast/.asf automatically generated from VICON data using
   VICON BodyBuilder and BodyLanguage model FoxedUp or BRILLIANT.MOD
:root
   order TX TY TZ RX RY RZ
   axis XYZ
   position 0 0 0  
   orientation 0 0 0 
:bonedata
  begin
     id 1 
     name lhipjoint
     direction 0.682418 -0.694059 0.22932 
     length 2.25561 
     axis 0 0 0  XYZ
  end
  begin
     id 2 
     name lfemur
     direction 0.34202 -0.939693 0  
     length 6.96448  
     axis 0 0 20  XYZ
    dof rx ry rz
    limits (-160.0 20.0)
           (-70.0 70.0)
           (-60.0 70.0)
  end
  begin
     id 3 
     name ltibia
     direction 0.34202 -0.939693 0   
     length 6.88553   
     axis 0 0 20   XYZ
    dof rx
    limits (-10.0 170.0)
  end
  begin
     id 4 
     name lfoot
     direction 0.0723587 -0.198804 0.977364   
     length 1.88518   
     axis -90 7.62852e-016 20   XYZ
    dof rx rz
    limits (-45.0 90.0)
           (-70.0 20.0)
  end
  begin
     id 5 
     name ltoes
     direction 1.53558e-011 -4.21962e-011 1   
     length 0.952124   
     axis -90 7.62852e-016 20   XYZ
    dof rx
    limits (-90.0 20.0)
  end
  begin
     id 6 
     name rhipjoint
     direction -0.657603 -0.71533 0.236348   
     length 2.18854  
     axis 0 0 0  XYZ 
  end
  begin
     id 7 
     name rfemur
     direction -0.34202 -0.939693 0   
     length 6.86686   
     axis 0 0 -20   XYZ
    dof rx ry rz
    limits (-160.0 20.0)
           (-70.0 70.0)
           (-70.0 60.0)
  end
  begin
     id 8 
     name rtibia
     direction -0.34202 -0.939693 0   
     length 6.59503   
     axis 0 0 -20   XYZ
    dof rx
    limits (-10.0 170.0)
 end
 begin
     id 9 
     name rfoot
     direction -0.101977 -0.280179 0.954516   
     length 1.93723  
     axis -90 -7.62852e-016 -20   XYZ
    dof rx rz
    limits (-45.0 90.0)
           (-20.0 70.0)
  end
  begin
     id 10 
     name rtoes
     direction -1.53564e-011 -4.21897e-011 1   
     length 0.970315   
     axis -90 -7.62852e-016 -20   XYZ
    dof rx
    limits (-90.0 20.0)
  end
  begin
     id 11 
     name lowerback
     direction -0.0339559 0.999421 -0.00235966   
     length 1.88543   
     axis 0 0 0   XYZ
    dof rx ry rz
    limits (-20.0 45.0)
           (-30.0 30.0)
           (-30.0 30.0)
  end
  begin
     id 12 
     name upperback
     direction 0.00401003 0.999739 0.0224689   
     length 1.8856   
     axis 0 0 0   XYZ
    dof rx ry rz
    limits (-20.0 45.0)
           (-30.0 30.0)
           (-30.0 30.0)
  end
  begin
     id 13 
     name thorax
     direction 0.0198619 0.999546 0.0226536   
     length 1.88352   
     axis 0 0 0   XYZ
    dof rx ry rz
    limits (-20.0 45.0)
           (-30.0 30.0)
           (-30.0 30.0)
  end
  begin
     id 14 
     name lowerneck
     direction -0.0461848 0.998632 0.0245198   
     length 1.34895   
     axis 0 0 0   XYZ
    dof rx ry rz
    limits (-20.0 45.0)
           (-30.0 30.0)
           (-30.0 30.0)
  end
  begin
     id 15 
     name upperneck
     direction -0.0180627 0.994724 -0.100984   
     length 1.35214   
     axis 0 0 0   XYZ
    dof rx ry rz
    limits (-20.0 45.0)
           (-30.0 30.0)
           (-30.0 30.0)
  end
  begin
     id 16
     name head
     direction -0.00374772 0.999293 -0.037403  
     length 1.3568  
     axis 0 0 0   XYZ
    dof rx ry rz
    limits (-20.0 45.0)
           (-30.0 30.0)
           (-30.0 30.0)
  end
  begin
     id 17 
     name lclavicle
     direction 0.971773 0.191119 0.138311  
     length 2.84954  
     axis 0 0 0   XYZ
    dof ry rz
    limits (-20.0 10.0)
           (0.0 20.0)
  end
  begin
     id 18 
     name lhumerus
     direction 1 -4.4897e-011 -2.43761e-027   
     length 4.40919   
     axis 180 -30 -90   XYZ
    dof rx ry rz
    limits (-60.0 90.0)
           (-90.0 90.0)
           (-90.0 90.0)
  end
  begin
     id 19
     name lradius
     direction 1 -4.4896e-011 -9.1621e-027   
     length 3.03857   
     axis 180 -30 -90   XYZ
    dof rx
    limits (-10.0 170.0)
  end
  begin
     id 20
     name lwrist
     direction 1 -4.4896e-011 -1.41363e-026   
     length 1.51928   
     axis 1.07133e-014 90 90   XYZ
    dof ry
    limits (-180.0 0.0)
 end
  begin
     id 21 
     name lhand
     direction 1 -4.48978e-011 -2.82725e-026   
     length 0.523208   
     axis 1.80403e-014 90 90   XYZ
    dof rx rz
    limits (-90.0 90.0)
           (-45.0 45.0)
  end
  begin
     id 22 
     name lfingers
     direction 1 -4.48977e-011 -5.6545e-026   
     length 0.421824   
     axis 3.60806e-014 90 90   XYZ
    dof rx
    limits (0.0 90.0)
  end
  begin
     id 23
     name lthumb
     direction 0.707107 -6.34962e-011 0.707107   
     length 0.605657   
     axis -90 45 2.85299e-015   XYZ
    dof rx rz
    limits (-45.0 45.0)
           (-45.0 45.0)
  end
  begin
     id 24 
     name rclavicle
     direction -0.957247 0.24311 0.156766   
     length 3.12406  
     axis 0 0 0   XYZ 
    dof ry rz
    limits (-10.0 20.0)
           (-20.0 0.0)
  end
  begin
     id 25 
     name rhumerus
     direction -1 -4.48964e-011 -1.70632e-027  
     length 4.61969   
     axis 180 30 90   XYZ
    dof rx ry rz
    limits (-90.0 60.0)
           (-90.0 90.0)
           (-90.0 90.0)
  end
  begin
     id 26 
     name rradius
     direction -1 -4.48966e-011 -6.60395e-027   
     length 3.09382   
     axis 180 30 90   XYZ
    dof rx
    limits (-10.0 170.0)
  end
  begin
     id 27 
     name rwrist
     direction -1 -4.48963e-011 -1.41363e-026   
     length 1.54691   
     axis 1.07133e-014 -90 -90   XYZ
    dof ry
    limits (-180.0 0.0)
  end
  begin
     id 28
     name rhand
     direction -1 -4.49013e-011 -2.82725e-026   
     length 0.500896   
     axis 1.80403e-014 -90 -90   XYZ
    dof rx rz
    limits (-90.0 90.0)
           (-45.0 45.0)
  end
  begin
     id 29
     name rfingers
     direction -1 -4.48902e-011 -5.6545e-026   
     length 0.403835   
     axis 3.60806e-014 -90 -90   XYZ
    dof rx
    limits (0.0 90.0)
  end
  begin
     id 30
     name rthumb
     direction -0.707107 -6.34953e-011 0.707107   
     length 0.579829   
     axis -90 -45 -2.85299e-015   XYZ
    dof rx rz
    limits (-45.0 45.0)
           (-45.0 45.0)
  end
:hierarchy
  begin
    root lhipjoint rhipjoint lowerback
    lhipjoint lfemur
    lfemur ltibia
    ltibia lfoot
    lfoot ltoes
    rhipjoint rfemur
    rfemur rtibia
    rtibia rfoot
    rfoot rtoes
    lowerback upperback
    upperback thorax
    thorax lowerneck lclavicle rclavicle
    lowerneck upperneck
    upperneck head
    lclavicle lhumerus
    lhumerus lradius
    lradius lwrist
    lwrist lhand lthumb
    lhand lfingers
    rclavicle rhumerus
    rhumerus rradius
    rradius rwrist
    rwrist rhand rthumb
    rhand rfingers
  end

#!OML:ASF E:\madness\Project 1\Capture day 1\Session 1\Female1.ASF
:FULLY-SPECIFIED
:DEGREES
385
root 16.8749 16.028 -0.231508 -530.87 -40.209 539.17
lowerback -3.9717 -2.2821 -3.13185
upperback -4.17494 -3.13152 0.543403
thorax -1.87885 -1.55311 2.23766
lowerneck 4.05025 7.99724 2.63378
upperneck 3.23907 10.7268 -5.25973
head 0.789516 5.32962 -2.10724
rclavicle -1.08243e-013 -6.01324e-015
rhumerus -52.8374 -0.39119 -49.6812
rradius 65.214
rwrist 17.2898
rhand -21.2765 -40.9127
rfingers 7.12502
rthumb 5.10735 -70.8311
lclavicle -1.08243e-013 -6.01324e-015
lhumerus -45.4945 -0.128569 80.0614
lradius 82.5107
lwrist -21.7946
lhand -34.5135 -26.4594
lfingers 7.12502
lthumb -7.67527 3.38134
rfemur -15.4537 15.3576 17.8042
rtibia 26.8645
rfoot -20.0924 -11.2675
rtoes 5.85762
lfemur -26.0219 5.44474 -14.7045
ltibia 50.7633
lfoot -18.0603 10.9885
ltoes 17.0019
386
root 16.9234 16.0358 -0.239299 -530.667 -40.1576 539.107
lowerback -4.06703 -2.42691 -3.10944
upperback -4.33693 -3.33483 0.651515
thorax -1.97622 -1.65543 2.33074
lowerneck 4.46928 8.2837 2.16355
upperneck 2.97159 11.0755 -4.93707
head 0.602738 5.50748 -1.95148
rclavicle -1.87102e-014 2.50966e-015
rhumerus -53.0558 -0.662006 -49.3929
rradius 64.8963
rwrist 17.4311
rhand -21.1168 -40.4657
rfingers 7.12502
rthumb 5.26158 -70.3804
lclavicle -1.87102e-014 2.50966e-015
lhumerus -45.725 0.0784224 80.3568
lradius 82.3459
lwrist -21.5892
lhand -34.8262 -25.2877
lfingers 7.12502
lthumb -7.97701 4.54176
rfemur -15.7828 15.6103 17.8023
rtibia 26.9705
rfoot -20.222 -11.2344
rtoes 6.93053
lfemur -26.0506 5.43142 -15.0781
ltibia 51.0464
lfoot -18.3351 10.5381
ltoes 17.8283
387
root 16.9569 16.0466 -0.257064 -530.315 -40.0827 538.412
lowerback -4.17593 -2.5215 -3.50682
upperback -4.35668 -3.45317 0.542583
thorax -1.91457 -1.70859 2.43179
lowerneck 4.58132 8.2653 2.52799
upperneck 2.98583 11.0697 -5.38079
head 0.637301 5.50705 -2.15788
rclavicle -3.75159e-014 1.2424e-016
rhumerus -53.401 -1.1803 -49.0349
rradius 64.5704
rwrist 17.5231
rhand -20.8974 -40.4024
rfingers 7.12502
rthumb 5.47343 -70.3117
lclavicle -3.75159e-014 1.2424e-016
lhumerus -45.8714 0.0197464 80.6823
lradius 82.1378
lwrist -21.2279
lhand -34.9881 -24.3862
lfingers 7.12502
lthumb -8.13324 5.43732
rfemur -15.6977 15.5872 17.3537
rtibia 27.0768
rfoot -20.3639 -11.0462
rtoes 6.64931
lfemur -25.6413 5.27056 -15.938
ltibia 51.1464
lfoot -18.5279 10.7967
ltoes 11.9622
388
root 16.9997 16.0452 -0.261258 -530.104 -40.1749 538.306
lowerback -4.40752 -2.5191 -3.29307
upperback -4.36353 -3.45273 0.398818
thorax -1.81244 -1.71958 2.1537
lowerneck 4.53433 8.19436 2.80753
upperneck 2.9534 10.9917 -5.46025
head 0.652675 5.47268 -2.22896
rclavicle 1.50944e-013 1.0312e-014
rhumerus -53.9473 -1.92611 -48.7832
rradius 64.4113
rwrist 17.3207
rhand -21.0298 -40.9655
rfingers 7.12502
rthumb 5.3456 -70.8781
lclavicle 1.50944e-013 1.0312e-014
lhumerus -45.8197 -0.390728 80.8598
lradius 81.8601
lwrist -20.8264
lhand -34.9301 -24.3
lfingers 7.12502
lthumb -8.07733 5.52562
rfemur -16.0985 15.6376 17.3088
rtibia 27.2268
rfoot -20.1898 -11.04
rtoes 6.36415
lfemur -25.6888 5.48611 -16.4733
ltibia 51.3873
lfoot -18.3235 10.9825
ltoes 4.24233
389
root 17.0364 16.0471 -0.267309 -529.916 -40.2479 538.165
lowerback -4.59206 -2.55098 -3.12114
upperback -4.37468 -3.4982 0.309064
thorax -1.73315 -1.75082 1.95529
lowerneck 4.43242 8.19818 2.7232
upperneck 2.85635 10.9925 -5.2695
head 0.622288 5.47498 -2.15138
rclavicle 1.33524e-013 2.17669e-014
rhumerus -54.4691 -2.35979 -48.5652
rradius 64.3478
rwrist 17.2081
rhand -21.3217 -41.2756
rfingers 7.12502
rthumb 5.06376 -71.1951
lclavicle 1.33524e-013 2.17669e-014
lhumerus -45.8109 -0.531429 81.0054
lradius 81.5312
lwrist -20.9119
lhand -34.7848 -24.0811
lfingers 7.12502
lthumb -7.93708 5.74988
rfemur -16.3565 15.5409 17.2734
rtibia 27.384
rfoot -20.1976 -10.8194
rtoes 7.22325
lfemur -25.5851 5.33417 -16.8039
ltibia 51.3752
lfoot -18.5072 10.2096
ltoes 3.17137
390
root 17.0737 16.0476 -0.275608 -529.998 -40.2075 538.049
lowerback -4.4865 -2.52902 -3.02115
upperback -4.35528 -3.4732 0.254656
thorax -1.78177 -1.73978 1.84951
lowerneck 4.05444 8.02611 2.75394
upperneck 3.00056 10.7693 -5.15554
head 0.715828 5.35944 -2.09974
rclavicle 1.16218e-013 2.5196e-014
rhumerus -55.0152 -2.86538 -48.264
rradius 64.1783
rwrist 17.2314
rhand -21.6518 -41.5148
rfingers 7.12502
rthumb 4.74498 -71.4417
lclavicle 1.16218e-013 2.5196e-014
lhumerus -45.7622 -0.622759 81.168
lradius 81.0938
lwrist -21.3242
lhand -34.4775 -24.0575
lfingers 7.12502
lthumb -7.64051 5.78451
rfemur -16.3479 15.5684 17.3235
rtibia 27.5726
rfoot -20.2118 -10.6975
rtoes 6.68878
lfemur -25.1558 5.07671 -17.0533
ltibia 51.3567
lfoot -18.9314 9.27542
ltoes 3.61004
391
root 17.1168 16.0466 -0.285146 -530.092 -40.0758 537.831
lowerback -4.32268 -2.46308 -3.08988
upperback -4.28302 -3.38278 0.162749
thorax -1.8048 -1.6917 1.80246
lowerneck 3.69134 8.02603 3.10456
upperneck 3.36079 10.7927 -5.32282
head 0.922905 5.36515 -2.18607
rclavicle 7.78058e-014 9.69386e-015
rhumerus -55.4851 -3.54359 -47.9905
rradius 63.8752
rwrist 17.2022
rhand -21.9169 -41.9455
rfingers 7.12502
rthumb 4.48898 -71.8779
lclavicle 7.78058e-014 9.69386e-015
lhumerus -45.4052 -1.16997 81.3542
lradius 80.3275
lwrist -21.1975
lhand -34.4851 -24.3243
lfingers 7.12502
lthumb -7.64776 5.51741
rfemur -16.2812 15.6747 17.3056
rtibia 27.7479
rfoot -20.0933 -10.6874
rtoes 4.86266
lfemur -24.5457 4.84132 -17.4156
ltibia 51.1312
lfoot -19.316 8.48549
ltoes 1.87208
392
root 17.1678 16.0389 -0.287106 -529.659 -40.0968 537.642
lowerback -4.43386 -2.58901 -3.29311
upperback -4.46302 -3.55723 0.252777
thorax -1.90386 -1.77487 2.00226
lowerneck 3.50828 8.1859 3.14774
upperneck 3.56376 11.0117 -5.4102
head 1.03707 5.46827 -2.20536
rclavicle -3.43859e-014 1.10574e-014
rhumerus -55.7084 -3.76002 -47.7575
rradius 63.6242
rwrist 17.2072
rhand -21.8116 -41.9267
rfingers 7.12502
rthumb 4.59069 -71.8569
lclavicle -3.43859e-014 1.10574e-014
lhumerus -45.1616 -1.6919 81.6011
lradius 79.4311
lwrist -20.5681
lhand -34.9228 -24.2674
lfingers 7.12502
lthumb -8.07029 5.55848
rfemur -16.8613 15.8545 17.1467
rtibia 27.9034
rfoot -19.9671 -10.7984
rtoes 4.93786
lfemur -24.6298 4.64884 -17.7565
ltibia 50.7816
lfoot -19.5109 7.58817
ltoes -0.582606
393
root 17.2072 16.0294 -0.296393 -529.838 -39.7514 537.655
lowerback -4.2003 -2.65694 -3.45334
upperback -4.54685 -3.65324 0.46426
thorax -2.09315 -1.81162 2.32045
lowerneck 3.50484 8.287 3.14544
upperneck 3.6026 11.1484 -5.56703
head 1.06691 5.5333 -2.25242
rclavicle -9.07452e-014 -1.40143e-014
rhumerus -55.83 -3.73604 -47.4363
rradius 63.4066
rwrist 17.2853
rhand -21.6265 -41.6776
rfingers 7.12502
rthumb 4.76946 -71.6039
lclavicle -9.07452e-014 -1.40143e-014
lhumerus -45.3542 -1.48196 81.8977
lradius 78.845
lwrist -20.4689
lhand -35.2173 -23.8699
lfingers 7.12502
lthumb -8.35445 5.94492
rfemur -16.8656 16.2372 17.2378
rtibia 28.059
rfoot -20.0682 -10.7284
rtoes 5.29651
lfemur -23.9675 4.94096 -17.9416
ltibia 50.2616
lfoot -19.8956 6.75673
ltoes -2.0334
394
root 17.2267 16.029 -0.313883 -529.707 -39.314 537.717
lowerback -4.62285 -2.61977 -3.325
upperback -4.7016 -3.60899 0.588294
thorax -2.02065 -1.79808 2.36104
lowerneck 3.67011 8.49321 2.95379
upperneck 3.72623 11.4151 -5.54493
head 1.07798 5.66082 -2.21471
rclavicle 5.69704e-014 7.7526e-015
rhumerus -56.1612 -3.69549 -47.0973
rradius 63.2057
rwrist 17.3786
rhand -21.4032 -41.6427
rfingers 7.12502
rthumb 4.98506 -71.5641
lclavicle 5.69704e-014 7.7526e-015
lhumerus -45.6854 -1.13441 82.2009
lradius 78.3797
lwrist -20.7218
lhand -35.2106 -24.003
lfingers 7.12502
lthumb -8.34801 5.81204
rfemur -17.1996 16.473 17.2138
rtibia 28.2157
rfoot -20.2037 -10.4336
rtoes 4.93761
lfemur -23.5244 5.02138 -18.1583
ltibia 49.5728
lfoot -20.1901 6.09092
ltoes -0.812309
